<svg xmlns="http://www.w3.org/2000/svg" version="1.1" viewBox="0 0 3000 3000" width="3000" height="3000">
<defs/><!--ITEM: Illustration component 1--><g transform="translate(2514.0 808.0) rotate(0.0 203.0 1124.0) translate(0.0 0.0) scale(1.734049732204635 1.7369776897269515)"><svg width="234.13399999999996" height="1133.0024626334518" viewBox="0.0 0.0 234.13399999999996 1133.0024626334518"><ellipse cx="117.067" cy="532.075" fill="#b0ff5c" rx="117.067" ry="532.075"/><path d="m160.7 356.395c.228-1.081-.464-2.142-1.545-2.369-1.075-.226-2.141.464-2.369 1.545l-37.719 179.108v-325.779c0-1.104-.896-2-2-2s-2 .896-2 2v344.969.006 302.209l-51.959-279.63c-.203-1.086-1.245-1.799-2.332-1.602-1.086.202-1.803 1.246-1.602 2.332l55.893 300.801v414.217c0 1.104.896 2 2 2s2-.896 2-2v-414.363c0-.002 0-.004 0-.006v-323.744z" fill="#231e40"/></svg></g><!--ITEM: Illustration component 2--><g transform="translate(610.0 138.0) rotate(0.0 239.0 1319.0) translate(0.0 0.0) scale(2.041565940871467 2.0383216839411467)"><svg width="234.134" height="1254.9540242608036" viewBox="0.0 0.0 234.134 1254.9540242608036"><ellipse cx="117.067" cy="532.075" fill="#b0ff5c" rx="117.067" ry="532.075"/><path d="m160.7 356.395c.228-1.081-.464-2.142-1.545-2.369-1.075-.226-2.141.464-2.369 1.545l-37.719 179.108v-325.779c0-1.104-.896-2-2-2s-2 .896-2 2v344.969.006 302.209l-51.959-279.63c-.203-1.086-1.245-1.799-2.332-1.602-1.086.202-1.803 1.246-1.602 2.332l55.893 300.801v414.217c0 1.104.896 2 2 2s2-.896 2-2v-414.363c0-.002 0-.004 0-.006v-323.744z" fill="#231e40"/></svg></g><!--ITEM: Illustration component 3--><g transform="translate(138.0 476.0) rotate(0.0 203.0 1124.0)  scale(1.734049732204635 1.7369776897269515)"><svg width="234.134" height="1294.202" viewBox="0.0 0.0 234.134 1294.202"><ellipse cx="117.067" cy="532.075" fill="#b0ff5c" rx="117.067" ry="532.075"/><path d="m160.7 356.395c.228-1.081-.464-2.142-1.545-2.369-1.075-.226-2.141.464-2.369 1.545l-37.719 179.108v-325.779c0-1.104-.896-2-2-2s-2 .896-2 2v344.969.006 302.209l-51.959-279.63c-.203-1.086-1.245-1.799-2.332-1.602-1.086.202-1.803 1.246-1.602 2.332l55.893 300.801v414.217c0 1.104.896 2 2 2s2-.896 2-2v-414.363c0-.002 0-.004 0-.006v-323.744z" fill="#231e40"/></svg></g><!--ITEM: Illustration component 4--><g transform="translate(2932.0 1200.0) rotate(0.0 -1437.0 800.0)  scale(-1.6958753761727738 1.695454063791459)"><svg width="1694.7" height="943.7" viewBox="0.0 0.0 1694.7 943.7"><path d="m810.2 166.9-106.2-104.2a272.555 272.555 0 0 0 -30.4-29.9 137.025 137.025 0 0 0 -32.6-20.1 127.137 127.137 0 0 0 -34.4-9.1 198.945 198.945 0 0 0 -23.9-1.5h-105.9a22.107 22.107 0 0 0 -22.1 22.1v1.7a22.107 22.107 0 0 0 22.1 22.1 22.107 22.107 0 0 0 -22.1 22.1v1.7a22.107 22.107 0 0 0 22.1 22.1 22.107 22.107 0 0 0 -22.1 22.1v1.7a22.107 22.107 0 0 0 22.1 22.1 22.107 22.107 0 0 0 -22.1 22.1v1.7a22.107 22.107 0 0 0 22.1 22.1h64.2a22.015 22.015 0 0 0 18.7-10.3l.2.2 110.6 108.5a225.525 225.525 0 0 0 157.9 64.6h329.9v-181.8z" fill="#fff6cc"/><path d="m517.491 105.482a24.932 24.932 0 0 1 -17.713-42.588l62.51-62.31a2 2 0 1 1 2.824 2.832l-62.5 62.3a20.981 20.981 0 0 0 29.674 29.67l34.508-34.108a2 2 0 0 1 2.812 2.845l-34.5 34.1a24.826 24.826 0 0 1 -17.615 7.259z" fill="#231e40"/><path d="m610.7 92.6a48.276 48.276 0 0 1 -44.335-29.1 2 2 0 0 1 3.67-1.589 44.437 44.437 0 0 0 63.244 20.575 2 2 0 0 1 2.043 3.439 48.2 48.2 0 0 1 -24.622 6.675z" fill="#231e40"/><path d="m838.9 200.2a2 2 0 0 1 -1.4-.574l-30.8-30.3a2 2 0 1 1 2.806-2.851l30.8 30.3a2 2 0 0 1 -1.4 3.425z" fill="#231e40"/><path d="m498.7 95.7h-25.2a2 2 0 0 1 0-4h25.2a2 2 0 0 1 0 4z" fill="#231e40"/><path d="m539.9 141.6h-66.4a2 2 0 0 1 0-4h66.4a21 21 0 0 0 0-42 2 2 0 0 1 0-4 25 25 0 0 1 0 50z" fill="#231e40"/><path d="m517.8 49.8h-44.3a2 2 0 0 1 0-4h44.3a2 2 0 0 1 0 4z" fill="#231e40"/><path d="m539.9 95.7h-3.1a2 2 0 0 1 0-4h3.1a21.024 21.024 0 0 0 21-21 23.082 23.082 0 0 0 -.188-2.478 2 2 0 0 1 3.976-.443 26.117 26.117 0 0 1 .212 2.921 25.028 25.028 0 0 1 -25 25z" fill="#231e40"/><path d="m498.7 95.7h-25.2a2 2 0 0 1 0-4h25.2a2 2 0 0 1 0 4z" fill="#231e40"/><path d="m556.6 11.2a1.994 1.994 0 0 1 -1.447-.619 20.924 20.924 0 0 0 -15.253-6.581h-66.4a2 2 0 0 1 0-4h66.4a24.894 24.894 0 0 1 18.147 7.82 2 2 0 0 1 -1.447 3.38z" fill="#231e40"/><path d="m517.8 49.9h-44.3a2 2 0 0 1 0-4h44.3a2 2 0 0 1 0 4z" fill="#231e40"/><path d="m539.9 187.5h-66.4a2 2 0 0 1 0-4h66.4a21 21 0 0 0 0-42h-66.4a2 2 0 0 1 0-4h66.4a25 25 0 0 1 0 50z" fill="#231e40"/><path d="m1321.8 403.3h-414.8c4.04-34.87 11.9-64.99 22.67-90.91.56-1.33 1.12-2.65 1.69-3.96 45.39-104.47 139.04-138.86 218.94-141.33 58.8-1.8 105.7 4.2 150.3 22.4-18 31.9 21.2 213.8 21.2 213.8z" fill="#fd7ce8"/><g fill="#fff"><path d="m954.4 368a2 2 0 0 1 -1.414-3.414l12.3-12.3a2 2 0 1 1 2.828 2.828l-12.3 12.3a1.99 1.99 0 0 1 -1.414.586z"/><path d="m1111.3 368a2 2 0 0 1 -1.42-3.408l12.2-12.3a2 2 0 1 1 2.84 2.816l-12.2 12.3a1.992 1.992 0 0 1 -1.42.592z"/><path d="m1032.9 368a2 2 0 0 1 -1.42-3.408l12.2-12.3a2 2 0 1 1 2.84 2.816l-12.2 12.3a1.99 1.99 0 0 1 -1.42.592z"/><path d="m1189.7 368a2 2 0 0 1 -1.42-3.408l12.2-12.3a2 2 0 1 1 2.84 2.816l-12.2 12.3a1.99 1.99 0 0 1 -1.42.592z"/><path d="m1268.1 368a2 2 0 0 1 -1.42-3.408l12.2-12.3a2 2 0 1 1 2.84 2.816l-12.2 12.3a1.989 1.989 0 0 1 -1.42.592z"/><path d="m937.31 317.21a1.98 1.98 0 0 1 -2.82 0l-4.82-4.82c.56-1.33 1.12-2.65 1.69-3.96l5.95 5.96a1.974 1.974 0 0 1 0 2.82z"/><path d="m1084.3 317.8a2 2 0 0 1 -1.414-.586l-12.2-12.2a2 2 0 0 1 2.828-2.828l12.2 12.2a2 2 0 0 1 -1.414 3.414z"/><path d="m1005.9 317.8a2 2 0 0 1 -1.414-.586l-12.2-12.2a2 2 0 0 1 2.828-2.828l12.2 12.2a2 2 0 0 1 -1.414 3.414z"/><path d="m1162.7 317.8a2 2 0 0 1 -1.414-.586l-12.2-12.2a2 2 0 0 1 2.828-2.828l12.2 12.2a2 2 0 0 1 -1.414 3.414z"/><path d="m1241.1 317.8a2 2 0 0 1 -1.414-.586l-12.2-12.2a2 2 0 0 1 2.828-2.828l12.2 12.2a2 2 0 0 1 -1.414 3.414z"/><path d="m1111.3 260.7a2 2 0 0 1 -1.414-3.414l12.2-12.2a2 2 0 0 1 2.828 2.828l-12.2 12.2a1.994 1.994 0 0 1 -1.414.586z"/><path d="m1032.9 260.7a2 2 0 0 1 -1.414-3.414l12.2-12.2a2 2 0 0 1 2.828 2.828l-12.2 12.2a1.99 1.99 0 0 1 -1.414.586z"/><path d="m1189.7 260.7a2 2 0 0 1 -1.414-3.414l12.2-12.2a2 2 0 0 1 2.828 2.828l-12.2 12.2a1.992 1.992 0 0 1 -1.414.586z"/><path d="m1268.1 260.7a2 2 0 0 1 -1.414-3.414l12.2-12.2a2 2 0 0 1 2.828 2.828l-12.2 12.2a1.99 1.99 0 0 1 -1.414.586z"/><path d="m1084.3 210.5a1.99 1.99 0 0 1 -1.414-.586l-12.2-12.2a2 2 0 0 1 2.828-2.828l12.2 12.2a2 2 0 0 1 -1.414 3.414z"/><path d="m1162.7 210.5a1.992 1.992 0 0 1 -1.414-.586l-12.2-12.2a2 2 0 0 1 2.828-2.828l12.2 12.2a2 2 0 0 1 -1.414 3.414z"/><path d="m1241.1 210.5a1.994 1.994 0 0 1 -1.414-.586l-12.2-12.2a2 2 0 0 1 2.828-2.828l12.2 12.2a2 2 0 0 1 -1.414 3.414z"/></g><path d="m18.1 563.9v366.8a10.029 10.029 0 0 0 10 10h80.9v-266s-39.5-75.3-77.2-111c-7.2-6.7-13.7-6.1-13.7.2z" fill="#231e40"/><path d="m64.9 683.8a2 2 0 0 1 -1.17-3.624l34.2-24.6a2 2 0 0 1 2.336 3.248l-34.2 24.6a1.994 1.994 0 0 1 -1.166.376z" fill="#fff"/><path d="m51.2 664.8a2 2 0 0 1 -1.173-3.621l35.7-25.8a2 2 0 1 1 2.342 3.242l-35.7 25.8a1.99 1.99 0 0 1 -1.169.379z" fill="#fff"/><path d="m2 942.7a2 2 0 0 1 -2-2v-379.7a2 2 0 0 1 4 0v379.7a2 2 0 0 1 -2 2z" fill="#231e40"/><path d="m108.93 674.59h150.1v266.1h-150.1z" fill="#fff6cc"/><path d="m1114.2 940.4c-4.2.2-8.5.2-12.8.2h-889.9v-354.9l902.7 65.9z" fill="#7b60c4"/><path d="m243.3 942.7a2 2 0 0 1 -2-2v-352.6a2 2 0 0 1 4 0v352.6a2 2 0 0 1 -2 2z" fill="#fff"/><path d="m717.1 762.1h-67.1a2 2 0 0 1 0-4h67.1a2 2 0 0 1 0 4z" fill="#fff"/><path d="m377.1 762.1h-43.8a2 2 0 0 1 -1.82-2.829l73.1-160.5a2 2 0 0 1 3.641 1.658l-71.813 157.671h40.692a2 2 0 0 1 0 4z" fill="#fff"/><path d="m613.3 844.7 5-11.3h-276.7l55.2-120.9h277.2z" fill="#fff6cc"/><path d="m341.6 833.4h276.7l-5 11.3h-276.9z" fill="#fff6cc"/><path d="m618.3 833.4-5 11.3-31.2 70.6a15.71 15.71 0 0 1 -14.3 9.3h-337.3c-6.3 0-7-6.6-.3-13.6 35.5-37.6 110.2-76.9 111.4-77.5h276.7z" fill="#231e40"/><path d="m348.8 879.5a2 2 0 0 1 -1.625-.831l-24.7-34.3a2 2 0 1 1 3.246-2.337l24.7 34.3a2 2 0 0 1 -1.621 3.168z" fill="#fff"/><path d="m329.7 893.3a2 2 0 0 1 -1.623-.83l-25.9-35.9a2 2 0 1 1 3.244-2.34l25.9 35.9a2 2 0 0 1 -1.621 3.17z" fill="#fff"/><path d="m573 942.7h-349.6a2 2 0 0 1 0-4h349.6a2 2 0 0 1 0 4z" fill="#231e40"/><path d="m1114.2 940.4c-4.2.2-8.5.2-12.8.2-139.3 0-230.2-92.6-360.2-229.3l-.9-.9s-2-2.1-2.1-2.2l-21.1 49.9h-380.7l71.5-157.2 49.1-108c43.1-86.3 75.1-168.9 155.6-210.4 48.4-24.9 108.5-36 174-10 29 11.5 58.1 30.3 85.8 58.4l.2.2 73.9 72.2h452.8c46.2 360.2-90.2 530.1-285.1 537.1z" fill="#7b60c4"/><path d="m1273.9 489.7h-42.4a40.245 40.245 0 0 1 -40.2-40.2v-46.2a2 2 0 1 1 4 0v46.2a36.24 36.24 0 0 0 36.2 36.2h42.4a2 2 0 0 1 0 4z" fill="#fff"/><path d="m1076.7 943.7c-.055 0-.11 0-.166-.006-58.669-4.808-112.72-27.12-170.1-70.22-51.237-38.486-101.405-90.051-166.685-158.7l-.865-.863c-3.986-4.1-3.986-4.1-3.986-5.015a2 2 0 0 1 3.638-1.148c.342.393 1.855 1.974 3.2 3.355l.879.878c115.45 121.4 206.612 217.262 334.25 227.722a2 2 0 0 1 -.162 3.993z" fill="#fff"/><path d="m717.1 762.1a2 2 0 0 1 -1.875-2.7l81.2-218.5a2 2 0 1 1 3.749 1.392l-81.2 218.5a2 2 0 0 1 -1.874 1.308z" fill="#fff"/><path d="m1082.9 540.7a1.993 1.993 0 0 1 -1.424-.6l-133.6-135.4a2 2 0 1 1 2.848-2.808l133.6 135.4a2 2 0 0 1 -1.424 3.4z" fill="#fff"/><path d="m1258.4 437h-277.8a2 2 0 1 1 0-4h277.8a2 2 0 0 1 0 4z" fill="#fff"/><path d="m729.1 729.8h-379.9a2 2 0 0 1 0-4h379.9a2 2 0 1 1 0 4z" fill="#fff"/><path d="m1676.3 885.1a22.735 22.735 0 0 0 -22.2-17.8h-2.9a22.969 22.969 0 0 0 -21.4-14.8h-60.7l-154.8-504c-.3-1-.6-2.1-1-3.1-35.8-113.7-89.9-146.5-114.1-156.5-80.7 24.8-88.2 116.4-58.1 214.4l138.7 451c10 34.1 13.7 79.3 82.8 85.6a20.972 20.972 0 0 0 5.6.7h80.2a23.031 23.031 0 0 0 19.4-10.6h101.9a22.982 22.982 0 0 0 23-22.9 23.1 23.1 0 0 0 -16.4-22z" fill="#fff6cc"/><path d="m1651.2 869.2a2 2 0 0 1 -1.877-1.31 20.814 20.814 0 0 0 -19.523-13.49h-60.7a2 2 0 0 1 0-4h60.7a24.827 24.827 0 0 1 23.277 16.11 2 2 0 0 1 -1.877 2.691z" fill="#231e40"/><path d="m1676.2 887.1a2 2 0 0 1 -1.948-1.556 20.869 20.869 0 0 0 -20.268-16.244l-79.395-.5a2 2 0 0 1 .012-4h.014l79.4.5a24.859 24.859 0 0 1 24.138 19.356 2 2 0 0 1 -1.952 2.444z" fill="#231e40"/><path d="m1692.7 909.2a2 2 0 0 1 -2-2 20.974 20.974 0 0 0 -20.9-21h-90.5a2 2 0 0 1 0-4h90.5a24.978 24.978 0 0 1 24.9 25 2 2 0 0 1 -2 2z" fill="#231e40"/><path d="m1567.8 932a2 2 0 0 1 -1.669-3.1 20.6 20.6 0 0 0 3.271-11.2 20.974 20.974 0 0 0 -20.9-21h-55.7a2 2 0 0 1 0-4h55.7a24.978 24.978 0 0 1 24.9 25 24.3 24.3 0 0 1 -3.929 13.4 2 2 0 0 1 -1.673.9z" fill="#231e40"/></svg></g><!--ITEM: Illustration component 5--><g transform="translate(1910.0 908.0) rotate(0.0 216.0 166.0)  scale(1.5476382395615025 1.545926112182084)"><svg width="279.135" height="214.758" viewBox="0.0 0.0 279.135 214.758"><path d="m75.581 193.009h-27.081a2 2 0 0 1 0-4h26.362c11.406-9.441 27.575-23.3 28.85-25.453a1.979 1.979 0 0 1 2.657-.921 2.019 2.019 0 0 1 .931 2.688c-1.516 3.174-23.686 21.643-30.444 27.228a2.007 2.007 0 0 1 -1.275.458z" fill="#231e40"/><path d="m49.394 200.065a2 2 0 0 1 -.52-3.932l26.187-7.055a2 2 0 0 1 1.039 3.862l-26.187 7.054a1.957 1.957 0 0 1 -.519.071z" fill="#231e40"/><path d="m91.361 193.009h-15.78a2 2 0 1 1 0-4h15.78a2 2 0 1 1 0 4z" fill="#231e40"/><path d="m256.325 214.58c-6.531.891-13.054-1.681-18.767-4.971-19.369-11.154-45.79-45.33-45.79-45.33s-36.823 6.8-55.472 6.343-37.45-4.354-53.811-13.313c-17.841-9.77-32.234-25.353-41.681-43.366s-11.375-34.956-11.875-55.291c-.149-6.044-1.009-18.752-1.381-19.084-1.888-1.668-27.548-12.068-27.548-12.068l23.948-7.913s.078-.143.222-.393c.87-1.551 4.118-7.23 5.994-9.16 8.2-8.441 25.829-11.54 37.393-9.348 21.688 4.113 28.369 30.36 31.131 34.037 11.178 14.877 179.735 156.404 180.412 160.498.877 5.254-17.443 18.631-22.775 19.359z" fill="#fd7ce8"/><g fill="#231e40"><path d="m122.959 193.009h-25.631a2 2 0 0 1 0-4h24.912c11.406-9.441 27.575-23.3 28.85-25.453a1.978 1.978 0 0 1 2.656-.921 2.019 2.019 0 0 1 .932 2.688c-1.516 3.174-23.686 21.643-30.444 27.228a2.007 2.007 0 0 1 -1.275.458z"/><path d="m96.772 200.065a2 2 0 0 1 -.52-3.932l26.187-7.055a2 2 0 0 1 1.041 3.862l-26.187 7.054a1.957 1.957 0 0 1 -.521.071z"/><path d="m138.74 193.009h-15.781a2 2 0 1 1 0-4h15.781a2 2 0 0 1 0 4z"/><path d="m27.548 39.568c-1.888-1.668-27.548-12.068-27.548-12.068l23.948-7.913s.078-.143.222-.393c4.075 3.241 5.85 6.309 6.025 10.2.122 2.751-2.275 10.506-2.647 10.174z"/></g></svg></g><!--ITEM: Illustration component 6--><g transform="translate(1032.0 1284.0) rotate(-42.78914031026122 -77.0 77.0)  scale(-1.612565445026178 1.6108786610878663)"><svg width="95.5" height="95.6" viewBox="0.0 0.0 95.5 95.6"><path d="m0 47.8a47.779 47.779 0 1 0 18.4-37.7 47.8 47.8 0 0 0 -18.4 37.7z" fill="#fff6cc"/><path d="m18.4 10.2a84.125 84.125 0 0 0 75.3 50.8 47.893 47.893 0 0 0 -46-60.9 47.067 47.067 0 0 0 -29.3 10.1z" fill="#231e40"/></svg></g><!--ITEM: Illustration component 7--><g transform="translate(2440.0 200.0) rotate(0.0 115.0 115.0)  scale(2.096971244142156 2.096971244142156)"><svg width="109.682" height="109.682" viewBox="0.0 0.0 109.682 109.682"><circle cx="54.841" cy="54.841" fill="rgb(255,242,61)" r="54.841"/></svg></g></svg>